<?xml version="1.0" encoding="utf-8" ?><svg xmlns="http://www.w3.org/2000/svg" xmlns:xlink="http://www.w3.org/1999/xlink" width="4096" height="1179" viewBox="0 0 4096 1179"><path fill="white" d="M0 0L4096 0L4096 1179L0 1179L0 0Z"/><path fill="#2C537D" d="M3244.04 77.0195C3323.42 36.4484 3380.44 16.0238 3469.57 7.48804C3471.11 15.9052 3473.29 104.036 3471.9 111.658C3473.78 149.881 3473.12 188.687 3474.27 226.963C3474.37 230.468 3474.46 235.469 3474.14 238.935C3475.23 250.956 3474.97 266.831 3475.07 279.106C3475.15 302.598 3475.41 326.089 3475.85 349.577C3493.81 352.336 3530 344.239 3527.33 370.547C3525.41 389.499 3491.08 383.936 3476.58 384.92C3477.42 406.924 3477.42 430.421 3477.25 452.548C3476.86 503.703 3479.44 555.604 3478.63 606.636L3478.13 797.686C3478.03 841.656 3478.65 887.978 3476.97 931.772C3465.82 923.265 3442 905.203 3433.53 895.177C3430.21 891.249 3423.02 860.498 3421.09 853.111C3411.71 818.449 3402.85 783.649 3394.51 748.723C3389.65 727.904 3380.83 685.456 3374.19 666.702C3372.55 712.476 3378.17 774.281 3382.22 820.563C3364.05 812.92 3327.93 785.685 3308.1 774.203C3330.63 815.771 3354.51 856.596 3379.69 896.611C3391.57 915.364 3415.63 947.281 3424.54 965.983C3430.84 975.179 3438.1 988.858 3443.57 998.795C3451.63 1011.6 3470.5 1038.57 3474.73 1051.63C3479.51 1066.4 3472.88 1148.5 3471.22 1168.19C3439.85 1166.03 3408.77 1160.83 3378.41 1152.67C3375.12 1151.82 3363.37 1148.72 3361.03 1147.55C3335.81 1141.45 3277.44 1118.65 3256.93 1104.46C3258.29 999.335 3258.37 894.198 3257.19 789.072C3257.3 761.101 3256.94 733.13 3256.11 705.171C3255.84 694.498 3254.45 665.843 3255.48 656.353L3253.55 654.969C3238.69 655.011 3206.13 658.595 3192.68 652.695C3182.14 648.071 3184.04 626.519 3199.03 624.462C3216.59 622.053 3234.46 622.768 3252.52 620.729C3251.98 603.263 3249.26 554.345 3251.51 539.333C3254.26 521.025 3278.61 470.791 3287.59 451.842C3302.27 414.776 3335.9 360.464 3356.66 324.571C3336.32 346.137 3315.5 374.101 3298.09 397.892C3282.83 418.553 3265.97 441.738 3249.76 461.437C3251.29 415.131 3248.19 358.986 3246.99 311.927C3245.13 233.638 3244.15 155.331 3244.04 77.0195Z"/><path fill="#31394D" d="M3244.04 77.0195C3323.42 36.4484 3380.44 16.0238 3469.57 7.48804L3469.39 8.44567C3468.19 14.8203 3468.31 27.7319 3468.2 34.7128C3468.16 29.1538 3468.96 19.9447 3467.25 15.2869C3465.03 13.1432 3464.29 12.5441 3460.43 12.8393C3446.22 13.9269 3430.74 16.1657 3416.81 18.953C3403.49 21.6168 3388.46 23.8585 3375.53 27.4433C3364.2 30.5856 3351.3 36.5911 3340.21 40.7745C3319.94 48.4226 3299.82 57.0926 3280.26 66.283C3275.53 68.5078 3251.22 78.76 3250.08 80.877C3245.95 88.5092 3248.49 120.613 3248.36 129.999C3248.22 140.462 3246.78 149.682 3246.73 159.033C3246.6 182.529 3246.97 205.747 3247.77 229.092L3248.34 229.264L3249.79 219.772L3249.3 221.78L3250.08 222.503C3249.32 243.776 3249.97 263.938 3250.13 285.164C3250.23 297.293 3248.06 315.202 3249.47 327.408C3250.75 327.041 3250.72 327.064 3251.84 326.329C3256.05 350.538 3254.78 389.73 3255.8 414.941C3256.06 421.411 3255.27 440.379 3255.99 445.558C3260.81 435 3284.85 404.7 3293.72 395.346C3295.99 395.628 3295.95 396.186 3298.09 397.892C3282.83 418.553 3265.97 441.738 3249.76 461.437C3251.29 415.131 3248.19 358.986 3246.99 311.927C3245.13 233.638 3244.15 155.331 3244.04 77.0195Z"/><path fill="#31394D" d="M3255.48 656.353L3256.38 655.998C3257.11 662.706 3259.01 682.808 3257.33 688.253L3258.52 688.57C3259.2 682.526 3259.19 672.814 3259.35 666.454C3260.33 701.059 3260.15 735.592 3263.11 770.035C3264.2 782.67 3262.93 796.921 3263.77 809.787C3265.46 844.186 3261.51 880.131 3261.93 914.174C3262.67 973.209 3263.12 1031.94 3259.96 1090.96C3259.81 1094.33 3258.7 1102.55 3261.74 1104.51C3281 1116.97 3339.46 1141.05 3359.84 1144.84L3361.32 1146.35L3361.03 1147.55C3335.81 1141.45 3277.44 1118.65 3256.93 1104.46C3258.29 999.335 3258.37 894.198 3257.19 789.072C3257.3 761.101 3256.94 733.13 3256.11 705.171C3255.84 694.498 3254.45 665.843 3255.48 656.353Z"/><path fill="#31394D" d="M3468.98 93.7491C3469.43 98.0499 3469.86 108.9 3471.9 111.658C3473.78 149.881 3473.12 188.687 3474.27 226.963C3474.37 230.468 3474.46 235.469 3474.14 238.935C3473.15 247.181 3473.79 259.296 3473.65 267.933C3473.28 291.473 3474.7 315.997 3472.65 339.387C3473.55 341.3 3468.22 265.299 3468.22 257.393C3468.22 209.059 3465.34 140.475 3468.98 93.7491Z"/><path fill="#31394D" d="M3287.59 451.842L3289.26 452.671C3287.96 460.576 3282.92 467.361 3279.48 474.319C3276.74 479.847 3274.9 485.893 3272.39 491.543C3265.29 507.562 3254.81 524.435 3253.7 542.285C3252.91 554.865 3261.79 615.453 3253.84 621.398C3251.2 623.373 3247.71 624.356 3244.62 625.383L3246.26 625.334C3239.12 627.17 3203.89 626.744 3199.7 625.311C3189.13 626.913 3184.44 645.653 3192.53 650.529C3206.23 658.788 3240.49 648.97 3253.55 654.969C3238.69 655.011 3206.13 658.595 3192.68 652.695C3182.14 648.071 3184.04 626.519 3199.03 624.462C3216.59 622.053 3234.46 622.768 3252.52 620.729C3251.98 603.263 3249.26 554.345 3251.51 539.333C3254.26 521.025 3278.61 470.791 3287.59 451.842Z"/><path fill="#31394D" d="M3478.63 606.636C3477.42 609.645 3476.94 626.055 3476.61 630.727C3476.39 629.748 3476.17 628.857 3476.16 627.845C3475.61 595.207 3476.14 562.544 3475.57 529.902C3475.49 524.803 3475.66 519.264 3474.87 514.25C3472.2 530.539 3476.06 611.39 3473.4 617.229C3472.04 615.349 3472.46 599.213 3472.47 595.788C3472.62 571.688 3472.4 547.587 3471.83 523.493C3471.62 513.273 3471 502.299 3470.78 492.247C3470.71 489.371 3474.79 483.193 3474.7 474.826C3474.43 452.03 3474.4 429.122 3474.67 406.33C3474.75 399.941 3474.27 391.895 3475.03 385.715L3476.58 384.92C3477.42 406.924 3477.42 430.421 3477.25 452.548C3476.86 503.703 3479.44 555.604 3478.63 606.636Z"/><path fill="#31394D" d="M3443.57 998.795C3441.86 999.352 3441.95 999.431 3440.6 1000.67L3441.98 1005.78L3440.35 1006.02C3435.23 996.243 3427.58 984.651 3423.6 974.89L3424.45 974.098C3425.82 976.058 3425.46 976.296 3427.24 976.754C3428.07 974.117 3424.53 970.719 3422.7 966.696L3424.54 965.983C3430.84 975.179 3438.1 988.858 3443.57 998.795Z"/><path fill="white" d="M3400.92 667.958L3400.25 668.345L3398.89 667.452C3395.88 655.065 3394.53 648.496 3393.92 635.79C3393.29 641.12 3394.06 652.144 3393.3 655.13C3393.03 654.831 3392.1 653.674 3392.06 653.403C3390.16 640.417 3390.9 627.867 3396.1 616.051C3405.58 594.536 3424.25 573.848 3445.06 563.154C3448.35 561.465 3452.47 562.758 3455.6 564.097L3454.22 565.491C3458.56 569.316 3458.56 581.009 3459.09 586.687C3461.04 607.732 3456.7 627.325 3442.6 643.669C3435.87 651.47 3411.07 671.337 3400.92 667.958Z"/><path fill="#31394D" d="M3400.92 667.958L3400.25 668.345L3398.89 667.452C3395.88 655.065 3394.53 648.496 3393.92 635.79C3393.29 641.12 3394.06 652.144 3393.3 655.13C3393.03 654.831 3392.1 653.674 3392.06 653.403C3390.16 640.417 3390.9 627.867 3396.1 616.051C3405.58 594.536 3424.25 573.848 3445.06 563.154C3448.35 561.465 3452.47 562.758 3455.6 564.097L3454.22 565.491C3432.9 575.53 3409.32 597.602 3400.99 620.021C3394.97 636.247 3397.41 651.685 3400.92 667.958Z"/><path fill="white" d="M3320.37 192.867C3335.41 204.562 3347.95 245.901 3344.74 264.773C3343.07 274.639 3339.31 300.452 3327.57 302.249C3326.54 301.667 3325.55 301.041 3324.58 300.373C3289.49 276.126 3298.65 223.119 3320.37 192.867Z"/><path fill="white" d="M3351.28 569.192C3352.25 569.678 3353.21 570.187 3354.16 570.721C3364.68 576.689 3372.52 586.3 3375.8 598.016C3379.05 609.682 3377.09 633.877 3371.21 644.286C3342.41 638.818 3341.64 591.488 3351.28 569.192Z"/><path fill="white" d="M3379.05 289.226L3378.36 290.201L3376.71 285.156L3376.49 285.38C3375.17 279.101 3378.11 262.666 3383.33 258.477C3382.67 261.366 3382.63 261.835 3381.24 264.397L3382.41 265.336C3389.08 254.257 3394.4 247.629 3407.49 243.683C3412.34 242.221 3419.86 237.05 3421.24 248.058C3422.82 260.619 3406.61 290.456 3394.19 292.677C3391.43 293.398 3390.59 295.29 3385.48 295.722C3382.25 294.529 3381.11 292.138 3379.05 289.226Z"/><path fill="#31394D" d="M3379.05 289.226L3378.36 290.201L3376.71 285.156L3376.49 285.38C3375.17 279.101 3378.11 262.666 3383.33 258.477C3382.67 261.366 3382.63 261.835 3381.24 264.397L3382.41 265.336C3389.08 254.257 3394.4 247.629 3407.49 243.683C3412.34 242.221 3419.86 237.05 3421.24 248.058C3422.82 260.619 3406.61 290.456 3394.19 292.677C3410.79 275.361 3414.6 266.182 3416.97 243.039C3393.05 248.915 3379.08 264.093 3379.05 289.226Z"/><path fill="#2C537D" d="M3747.18 58.08C3761.61 64.9765 3775.9 72.1417 3790.06 79.5717C3882.31 128.903 3940.03 186.074 3997.75 273.63C4006.17 286.404 4026.23 319.791 4030.29 333.161C4034.51 338.1 4045.32 366.547 4048.02 373.999C4080.03 462.344 4094.73 543.743 4087.43 637.854C4075.54 787.827 4005.2 927.125 3891.57 1025.72C3857.44 1054.93 3818.24 1082.49 3777.53 1101.83C3769.05 1010.86 3771.04 917.116 3762.59 825.866C3761.44 813.432 3760.49 799.185 3760.06 786.718C3784.78 744.783 3815.58 702.782 3842.36 661.642L3891.64 585.265C3899.17 573.425 3909.74 555.332 3917.42 544.59C3920.96 534.817 3956.81 486.983 3964.57 475.367C3958.76 479.728 3953.19 483.908 3947.2 488.03C3946.35 489.201 3935.61 497.814 3934.03 498.971C3917.65 510.945 3902.66 529.941 3885.34 539.92C3883.03 509.592 3881.32 479.221 3880.22 448.824C3879.71 435.83 3878.43 419.005 3878.88 406.397C3878.1 396.8 3878.3 387.088 3877.53 377.958C3872.41 389.752 3863.3 422.691 3860.62 435.879L3831.52 549.57C3828.96 559.308 3820.39 593.497 3816.35 600.05C3807.44 614.514 3771.67 644.381 3756.99 653.469C3756.9 642.215 3756.67 630.962 3756.3 619.713L3750.33 354.168C3749.5 317.739 3749.53 281.09 3749.05 244.642C3748.97 241.998 3748.43 239.413 3747.33 237.015C3739.7 220.226 3709.91 238.389 3711.7 213.326C3713.38 189.915 3746.12 209.144 3747.08 186.975C3747.74 171.868 3747.31 156.639 3747.19 141.486C3746.9 113.685 3746.9 85.8814 3747.18 58.08Z"/><path fill="#31394D" d="M4030.29 333.161C4034.51 338.1 4045.32 366.547 4048.02 373.999C4080.03 462.344 4094.73 543.743 4087.43 637.854C4075.54 787.827 4005.2 927.125 3891.57 1025.72C3857.44 1054.93 3818.24 1082.49 3777.53 1101.83C3769.05 1010.86 3771.04 917.116 3762.59 825.866C3761.44 813.432 3760.49 799.185 3760.06 786.718C3784.78 744.783 3815.58 702.782 3842.36 661.642L3891.64 585.265C3899.17 573.425 3909.74 555.332 3917.42 544.59C3921.37 551.506 3915.49 556.862 3912.54 562.299C3899.8 585.813 3884.47 607.53 3870.73 630.422C3867.75 635.132 3862.39 639.468 3859.39 643.96C3828.83 689.59 3796.75 734.412 3767.65 781.063C3762.6 789.158 3767.14 815.037 3768.17 825.304C3769.59 840.081 3770.71 854.885 3771.53 869.709C3774.6 919.723 3776.94 969.103 3776.78 1019.24C3776.74 1029.42 3783.62 1086.04 3780.56 1089.2L3780.56 1089.2C3779.17 1087.2 3780.01 1080.54 3779.65 1076.6L3778.53 1076.07C3778.32 1077.35 3779.32 1091.92 3779.41 1094.13L3780.03 1094.03L3781.26 1091.56C3782.7 1092.09 3783.46 1092.25 3784.93 1092.6C3794.83 1084.03 3814.52 1077.26 3826.82 1068.58C3905.03 1013.38 3975.53 940.202 4020.67 855.285C4033.35 831.421 4041.23 806.439 4050.36 781.259C4056.31 765.045 4061.18 748.46 4064.96 731.609C4065.25 730.342 4068.07 722.112 4068.55 720.95C4072.32 711.939 4079.08 652.926 4081.19 649.705C4081.68 652.903 4081.34 654.401 4083.16 656.563C4085.38 648.105 4084.92 629.19 4086.38 622.458C4088.2 614.08 4086.03 547.115 4085.41 548.106L4085.45 550.829L4083 550.322L4084.48 551.886C4081.19 547.864 4082.24 536.185 4081.35 529.757C4079.74 518.068 4078.71 506.698 4076.51 495.193C4074.61 485.203 4064.58 452.372 4064.91 444.501C4066.09 447.767 4067.22 451.636 4069.16 454.419C4069.96 450.374 4065.92 438.295 4064.69 433.809C4055.16 399.072 4043.76 367.468 4029.11 334.574L4030.29 333.161Z"/><path fill="#31394D" d="M3756.3 619.713C3756.74 624.552 3758.91 628.197 3759.34 633.33L3760.1 633.665L3761.03 631.968C3764.87 635.007 3759.07 638.17 3762.53 643.398C3769.4 641.046 3809.65 601.988 3812.13 594.38C3829.55 540.86 3838.47 484.745 3858.29 431.822L3859.58 432.102L3860.62 435.879L3831.52 549.57C3828.96 559.308 3820.39 593.497 3816.35 600.05C3807.44 614.514 3771.67 644.381 3756.99 653.469C3756.9 642.215 3756.67 630.962 3756.3 619.713Z"/><path fill="#31394D" d="M3878.88 406.397C3879.02 404.074 3879.26 395.759 3880.55 394.235L3879.96 396.829L3881.04 395.611C3881.77 414.684 3880.61 433.562 3884.01 452.361L3883.93 447.444C3889.93 476.953 3883.46 498.094 3887.08 528.1L3887.51 527.165L3887.63 530.45C3888.8 526.012 3889.03 518.609 3886.46 514.661C3887.03 512.006 3887.2 509.339 3887.36 506.636C3888.31 507.675 3890.38 525.523 3890.77 528.416C3889.61 528.811 3907.88 516.612 3908.27 516.32C3919.77 507.738 3932.84 494.463 3945.26 487.636L3947.2 488.03C3946.35 489.201 3935.61 497.814 3934.03 498.971C3917.65 510.945 3902.66 529.941 3885.34 539.92C3883.03 509.592 3881.32 479.221 3880.22 448.824C3879.71 435.83 3878.43 419.005 3878.88 406.397Z"/><path fill="white" d="M3899.78 371.152C3895.33 365.604 3915.42 344.715 3915.85 340.068L3910.69 344.611L3909.54 343.986C3910.99 341.405 3915.78 336.414 3918.65 335.627L3921.3 337.588C3924.27 336.144 3933.32 327.489 3935.23 327.362C3953.38 326.161 3972.31 324.172 3989.32 331.398L3988.71 332.433C3991 334.489 3992.5 335 3992.61 337.811C3992.88 344.784 3987.35 354.628 3984.23 360.973C3986.11 361.561 3986.88 361.657 3988.85 361.563C3988.51 378.972 3950.49 399.331 3934.75 394.913C3933.94 394.685 3924.59 394.948 3922.57 394.834L3923.01 394.41C3926.41 394.507 3932.07 395.147 3934.73 393.555C3925.81 393.127 3909.76 392.104 3903.63 385.341C3898.14 379.275 3899.7 378.302 3899.78 371.152Z"/><path fill="#31394D" d="M3899.78 371.152C3895.33 365.604 3915.42 344.715 3915.85 340.068L3910.69 344.611L3909.54 343.986C3910.99 341.405 3915.78 336.414 3918.65 335.627L3921.3 337.588C3924.27 336.144 3933.32 327.489 3935.23 327.362C3953.38 326.161 3972.31 324.172 3989.32 331.398L3988.71 332.433C3982.08 332.096 3976.05 329.596 3969.39 329.038C3950.21 327.433 3935.63 329.72 3920.2 341.811C3906.94 352.213 3907.31 360.864 3899.78 371.152Z"/><path fill="#31394D" d="M3984.23 360.973C3986.11 361.561 3986.88 361.657 3988.85 361.563C3988.51 378.972 3950.49 399.331 3934.75 394.913C3933.94 394.685 3924.59 394.948 3922.57 394.834L3923.01 394.41C3926.41 394.507 3932.07 395.147 3934.73 393.555C3959.41 391.299 3971.16 381.2 3984.23 360.973Z"/><defs><linearGradient id="gradient_0" gradientUnits="userSpaceOnUse" x1="3807.4104" y1="323.17633" x2="3837.2798" y2="399.89111"><stop offset="0" stop-color="#E4FFFF"/><stop offset="1" stop-color="white"/></linearGradient></defs><path fill="url(#gradient_0)" d="M3841.02 403.238C3800.39 414.331 3789.5 330.248 3813.6 319.166C3818 319.447 3817.49 319.995 3821.7 322.692L3822.69 320.74C3839.39 331.717 3855.42 370.648 3849.99 390.452L3848.4 390.551C3848.5 395.849 3846.08 400.333 3842.49 404.058L3841.02 403.238Z"/><path fill="#31394D" d="M3821.7 322.692L3822.69 320.74C3839.39 331.717 3855.42 370.648 3849.99 390.452L3848.4 390.551C3848.5 395.849 3846.08 400.333 3842.49 404.058L3841.02 403.238C3845.84 391.349 3847.61 392.913 3847.54 377.627C3847.44 355.15 3837.03 338.042 3821.7 322.692Z"/><defs><linearGradient id="gradient_1" gradientUnits="userSpaceOnUse" x1="3876.0286" y1="297.8367" x2="3902.5767" y2="329.05066"><stop offset="0" stop-color="#E6FFFF"/><stop offset="1" stop-color="#FCFFFF"/></linearGradient></defs><path fill="url(#gradient_1)" d="M3872.56 336.228L3871.54 337.67L3870.66 337.065L3870.52 336.282C3866.19 312.024 3871.7 304.009 3885.02 284.882C3882.4 287.607 3879.67 290.985 3876.27 292.406L3875.13 291.584C3877.31 287.512 3887.7 278.903 3891.58 275.061C3893.21 273.439 3895.85 273.705 3897.91 273.974C3910.52 281.301 3910.11 315.442 3904 327.2L3901.99 327.146C3893.86 339.733 3881.42 363.931 3872.56 336.228Z"/><path fill="#31394D" d="M3872.56 336.228L3871.54 337.67L3870.66 337.065L3870.52 336.282C3866.19 312.024 3871.7 304.009 3885.02 284.882C3882.4 287.607 3879.67 290.985 3876.27 292.406L3875.13 291.584C3877.31 287.512 3887.7 278.903 3891.58 275.061C3893.21 273.439 3895.85 273.705 3897.91 273.974C3910.52 281.301 3910.11 315.442 3904 327.2L3901.99 327.146C3908.51 308.283 3906.53 293.808 3899.36 275.586C3878.91 293.536 3867.52 307.451 3872.56 336.228Z"/><path fill="#2C537D" d="M3103.69 183.636C3114.56 171.64 3134.89 154.188 3147.92 143.849L3149.63 268.861C3150.77 326.895 3152.54 385.86 3152.9 443.853C3164.8 444.496 3191.95 443.814 3199.85 452.736C3202.44 455.669 3203.7 459.543 3203.34 463.439C3202.88 467.835 3200.59 471.834 3197.03 474.452C3188.55 480.679 3155.02 476.879 3154.7 484.988C3152.57 538.976 3157.25 595.789 3155.62 649.723C3156.03 680.005 3156.22 710.289 3156.2 740.574C3146.92 734.636 3135.71 727.85 3126.9 721.487L3126.23 721.169C3116.4 716.407 3105.39 708.213 3095.89 703.313C3071.38 690.668 3034.63 675.798 3007.76 670.77C3064.23 715.193 3111.5 764.235 3145.91 828.766C3153.91 843.25 3152.31 863.494 3158.61 877.826C3163.28 888.471 3191.85 877.554 3193.12 895.143C3194.96 920.515 3173.97 909.282 3161.48 918.238C3151.4 940.364 3164.05 1028.16 3156.05 1038.07C3146.32 1036.74 3100.65 992.661 3091.06 982.938C2986.48 876.98 2931.19 724.676 2932.7 576.615C2934.19 430.309 2999.37 285.714 3103.69 183.636Z"/><path fill="#31394D" d="M3161.48 918.238C3151.4 940.364 3164.05 1028.16 3156.05 1038.07C3146.32 1036.74 3100.65 992.661 3091.06 982.938C2986.48 876.98 2931.19 724.676 2932.7 576.615C2934.19 430.309 2999.37 285.714 3103.69 183.636C3104.16 185.493 3105.11 187.456 3104.06 188.798C3096.2 198.884 3085.79 209.257 3077.84 219.228C3057.03 245.127 3037.41 271.964 3019.05 299.657C2992.96 339.08 2976.33 372.494 2964.36 418.574C2953.19 461.595 2943.6 502.737 2938.17 547.037C2935.06 572.495 2936.25 595.135 2939.48 620.525C2946.22 680.761 2954.18 746.471 2978.86 802.417C3001.5 849.334 3024.97 895.54 3058.65 935.742C3060.28 937.687 3059.74 944.266 3059.85 944.465C3066.76 957.214 3142.6 1032.61 3151.29 1031.63C3155.41 1026.77 3152.23 1015.58 3154.35 1011.05C3160.54 997.806 3147.09 921.895 3161.48 918.238Z"/><path fill="#31394D" d="M3126.9 721.487C3132.51 720.958 3140.05 728.873 3148.53 732.306C3147.77 729.88 3143.69 727.45 3141.41 725.771C3143.73 726.602 3146.06 727.402 3148.39 728.172C3149.31 727.197 3150.31 647.005 3153.82 633.726C3154.19 638.001 3153.7 646.784 3155.62 649.723C3156.03 680.005 3156.22 710.289 3156.2 740.574C3146.92 734.636 3135.71 727.85 3126.9 721.487Z"/><path fill="#31394D" d="M5.06963 336.886L97.0814 336.865C119.848 336.818 141.085 335.93 163.327 338.94C207.828 344.962 241.951 372.945 251.32 417.671C257.597 447.641 260.282 512.93 243.591 540.052C237.743 553.51 222.418 570.811 208.861 576.261L208.207 579.799C258.313 596.861 267.149 663.445 264.865 708.333C265.63 722.638 261.215 770.577 252.708 781.761C248.449 791.168 245.177 798.295 238.428 806.246C205.626 851.825 141.264 846.494 92.2955 846.418L5.01104 846.282L5.06963 336.886Z"/><path fill="#21263B" d="M208.207 579.799C258.313 596.861 267.149 663.445 264.865 708.333C263.032 710.438 262.535 723.507 262.201 727.343C260.947 716.727 262.891 706.002 262.028 695.853C260.14 673.642 261.55 639.125 248.191 620.398L246.366 623.207C240.693 615.695 236.589 607.094 230.593 600.714C226.856 596.737 214.534 590.33 211.308 586.452L213.417 584.764L208.293 581.053L208.207 579.799Z"/><path fill="#2C3145" d="M208.861 576.261C209.157 574.943 209.517 574.338 210.063 573.115C215.442 570.226 228.17 560.417 231.91 555.347C233.411 553.312 233.67 546.264 237.14 541.962C240.279 540.248 240.345 539.683 243.591 540.052C237.743 553.51 222.418 570.811 208.861 576.261Z"/><path fill="white" d="M89.7651 618.173C111.089 618.133 145.487 614.175 162.485 626.787C184.387 643.037 181.131 680.462 181.146 704.564C181.159 723.785 181.546 742.859 169.336 758.471C150.37 775.942 116.221 771.127 89.8187 770.963C88.9949 720.757 89.7464 668.606 89.7651 618.173Z"/><path fill="white" d="M90.0142 411.186C161.053 410.594 173.56 407.545 174.098 484.598C176.03 478.098 175.361 465.688 175.007 458.649L176.032 458.923C177.133 467.996 176.419 483.421 176.297 492.937C176.233 497.954 173.419 501.714 174.148 506.617C176.333 505.246 175.866 505.148 177.289 502.51C177.433 522.109 162.605 541.523 143.333 545.698L143.163 545.011L144.689 543.042C139.7 542.148 93.3674 547.891 88.2423 542.556C87.5852 538.303 87.7524 495.345 88.3543 490.819C88.871 500.481 87.7084 535.57 89.1773 541.863C90.3585 536.324 89.9205 507.709 89.918 500.564L90.0142 411.186Z"/><path fill="#21263B" d="M174.098 484.598C176.03 478.098 175.361 465.688 175.007 458.649L176.032 458.923C177.133 467.996 176.419 483.421 176.297 492.937C176.233 497.954 173.419 501.714 174.148 506.617C176.333 505.246 175.866 505.148 177.289 502.51C177.433 522.109 162.605 541.523 143.333 545.698L143.163 545.011L144.689 543.042C139.7 542.148 93.3674 547.891 88.2423 542.556C87.5852 538.303 87.7524 495.345 88.3543 490.819C88.871 500.481 87.7084 535.57 89.1773 541.863C142.167 542.531 169.047 548.937 174.098 484.598Z"/><path fill="#31394D" d="M2226.84 336.718C2257.04 337.517 2289.14 336.979 2319.11 336.672C2369.64 336.156 2427.89 335.847 2458.23 384.39C2480.78 420.462 2479.16 478.134 2471.87 518.828C2466.88 546.646 2449.41 564.909 2426.45 579.384C2428.31 580.097 2430.16 580.872 2431.97 581.706C2478.4 603.27 2485.46 656.72 2484.98 701.917C2484.65 732.55 2485.09 758.236 2471.96 786.83C2439.96 851.389 2374.84 846.848 2313.61 846.838L2226.64 847.032L2226.84 336.718Z"/><path fill="white" d="M2318.52 618.521C2363 617.917 2400.25 615.025 2399.88 674.063C2399.72 701.39 2406.46 743.839 2384.28 763.326C2366.77 774.542 2332.95 771.231 2310.97 771.243L2310.91 672.306C2310.87 659.011 2310.04 632.233 2311.31 619.754C2313.95 618.072 2314.98 618.629 2318.52 618.521Z"/><path fill="white" d="M2311.06 410.889C2327.48 410.788 2360.51 407.726 2373.79 417.25C2396.17 433.308 2393.41 472.728 2392.09 497.068C2391.47 508.518 2387.27 519.477 2380.48 528.885C2363.18 546.939 2334.15 542.513 2310.97 542.3L2311.06 410.889Z"/><path fill="#2C537D" d="M3565.92 7.30304C3603 11.7627 3627.13 15.8511 3663.19 25.6319C3663.23 93.955 3663.96 162.276 3665.38 230.585C3665.95 262.993 3668.37 309.545 3667.13 340.609C3668.94 363.133 3669.21 409.554 3669.06 433.043C3675.71 433.267 3699 433.692 3704.3 434.935C3713.8 438.426 3715.08 451.59 3710.05 459.129C3705.01 466.781 3680.67 463.719 3669.6 466.34C3669.51 470.745 3669.64 484.135 3669.19 487.651C3671.59 523.888 3670.46 569.271 3671.42 606.494L3673.29 666.53C3673.53 673.866 3674.45 689.968 3673.94 696.897C3676.94 741.511 3677.44 794.395 3678.55 839.504C3682.39 839.523 3691.33 840.075 3694.97 839.662C3712.93 837.626 3722.97 850.714 3712.09 866.237C3706.45 874.289 3681.17 864.861 3679.9 875.688C3679.9 876.08 3679.82 878.397 3679.82 878.883C3680.99 895.433 3681.37 913.416 3681.65 930.044C3682.82 1000.34 3686.4 1071.04 3687.36 1141.3C3650.57 1151.11 3611.14 1161.65 3573.3 1166.57L3571.93 1116.66C3571.81 1111.61 3571.33 1094.71 3571.86 1090.03C3571.1 1084.3 3572.01 1079.78 3569.96 1073.98C3562.02 1065.81 3542.36 1077.81 3539.59 1061.69C3534.45 1031.81 3559.69 1045.17 3568.81 1038.09C3572.53 1025.87 3572.78 976.005 3573.21 960.18C3575.14 887.381 3576.23 814.564 3576.49 741.74L3576.35 642.294C3558.38 641.613 3503.27 650.347 3524.34 618.156C3529.83 609.778 3563.98 612.304 3576.14 610.201C3576.87 547.463 3575.64 491.12 3573.34 428.572C3568.26 315.689 3569.57 201.472 3566.93 88.4503C3566.3 61.2724 3565.75 34.5016 3565.92 7.30304Z"/><path fill="#31394D" d="M3565.92 7.30304C3603 11.7627 3627.13 15.8511 3663.19 25.6319C3663.23 93.955 3663.96 162.276 3665.38 230.585C3665.95 262.993 3668.37 309.545 3667.13 340.609C3666.67 346.107 3666.34 351.615 3666.15 357.129C3665.71 350.736 3665.33 309.377 3664.22 308.102C3660.98 312.421 3664.41 328.949 3662.55 336.408L3661.57 336.422C3659.96 308.232 3660.67 280.94 3660.27 252.773C3659.91 226.861 3658.79 202.231 3660.38 176.253C3661.49 158.003 3659.19 137.891 3659.53 119.491C3659.32 96.335 3659.72 73.7117 3657.71 50.5713C3657.33 46.1939 3657.28 34.051 3655.94 30.562C3647.25 26.0028 3583.79 13.1285 3573.81 14.9457C3568.68 26.977 3572.85 59.3427 3572.06 74.1701C3568.63 138.596 3571.87 204.055 3575.32 268.421C3577.8 314.749 3577.45 363.432 3575.06 409.667C3574.79 412.931 3575.37 427.862 3573.34 428.572C3568.26 315.689 3569.57 201.472 3566.93 88.4503C3566.3 61.2724 3565.75 34.5016 3565.92 7.30304Z"/><path fill="#31394D" d="M3571.86 1090.03L3572.68 1082.27C3573.61 1100.86 3579.25 1121.99 3576.5 1140.73C3575.53 1147.38 3573.45 1151.96 3575.57 1158.8C3581.4 1162.53 3590.05 1154.91 3597.46 1157.82C3596.16 1160.66 3590.35 1158.33 3587.22 1161.21C3593.93 1163.59 3673.69 1143.4 3683.93 1139.37C3684.62 1134.33 3684.68 1092.8 3683.1 1091.07C3680.24 1095.18 3683.39 1121.24 3682.49 1129.03L3681.51 1128.7C3679.16 1123.67 3678.18 1024.37 3678.57 1011.27C3678.84 1002.32 3676.41 980.4 3677.68 970.555C3677.75 969.958 3679.95 969.172 3680.85 968.756C3679.11 952.312 3679.35 929.403 3678.64 912.51C3678.14 900.747 3677.08 885.67 3677.8 874.241L3678.62 873.884L3679.82 878.883C3680.99 895.433 3681.37 913.416 3681.65 930.044C3682.82 1000.34 3686.4 1071.04 3687.36 1141.3C3650.57 1151.11 3611.14 1161.65 3573.3 1166.57L3571.93 1116.66C3571.81 1111.61 3571.33 1094.71 3571.86 1090.03Z"/><path fill="#31394D" d="M3576.49 741.74C3579.56 736.581 3575.98 660.838 3578.92 657.057C3581.32 660.108 3580.7 675.339 3580.99 679.828C3583.99 726.715 3583.17 773.402 3579.8 820.207C3577.83 847.629 3579.9 877.678 3577.91 905.382C3577.6 915.83 3580.25 963.024 3577.4 969.52L3576.56 948.719C3575.04 963.705 3576.16 1032.74 3569.89 1038.44L3568.81 1038.09C3572.53 1025.87 3572.78 976.005 3573.21 960.18C3575.14 887.381 3576.23 814.564 3576.49 741.74Z"/><path fill="#31394D" d="M3669.19 487.651C3671.59 523.888 3670.46 569.271 3671.42 606.494L3673.29 666.53C3673.53 673.866 3674.45 689.968 3673.94 696.897C3672.95 699.87 3672.97 706.754 3672.51 710.723C3669.98 708.876 3673.16 693.498 3671.75 686.706L3669.58 686.455C3669.94 689.076 3670.39 690.323 3669.15 692.716L3669.19 692.699C3667.69 687.424 3666.35 669.698 3666.96 664.22C3673.39 606.631 3664.05 544.913 3669.19 487.651Z"/><path fill="#31394D" d="M3704.3 434.935C3713.8 438.426 3715.08 451.59 3710.05 459.129C3706.58 433.311 3700.09 446.481 3693.61 438.617L3697.74 437.291L3697.87 436.316C3696.02 435.626 3678.96 436.199 3674.98 436.045C3684.75 434.994 3694.35 435.522 3704.3 434.935Z"/><path fill="#31394D" d="M505.883 336.594C558.542 337.812 616.871 333.57 668.857 339.759C694.412 342.801 722.181 362.302 736.445 383.496C758.34 416.028 763.575 478.991 755.986 516.078C754.096 547.245 740.948 579.66 717.23 600.626C715.11 602.534 712.917 604.359 710.655 606.098C721.347 617.55 726.913 624.431 732.685 639.304C741.759 657.025 747.007 735.553 751.291 760.525C757.177 794.833 760.647 812.023 772.802 846.58C742.635 847.256 710.811 846.793 680.521 846.817C678.12 824.712 671.254 797.392 668.45 773.218C663.126 736.863 662.581 699.637 653.946 663.847C644.893 626.328 619.958 630.026 589.789 630.375L589.939 846.563C564.043 847.63 532.112 846.912 505.803 846.987L505.883 336.594Z"/><path fill="#21263B" d="M732.685 639.304L731.704 640.783C727.318 634.735 724.012 623.079 718.728 618.513C713.323 613.843 710.625 607.362 709.084 600.534C711.665 595.71 715.817 594.226 719.148 590.43C736.675 570.451 743.341 553.529 749.081 528.102C751.086 519.219 755.182 519.452 754.793 504.129L754.759 503.026L755.555 502.344C755.568 507.151 755.678 511.283 755.986 516.078C754.096 547.245 740.948 579.66 717.23 600.626C715.11 602.534 712.917 604.359 710.655 606.098C721.347 617.55 726.913 624.431 732.685 639.304Z"/><path fill="white" d="M590.061 411.16C609.158 411.603 638.912 407.756 654.891 418.221C663.627 423.778 671.729 438.631 672.521 448.841C674.742 477.448 678.091 517.012 661.206 541.516C660.84 541.91 660.465 542.295 660.082 542.672C644.168 558.235 612.014 554.392 589.817 554.385C590.443 507.061 589.965 458.561 590.061 411.16Z"/><path fill="#31394D" d="M1175.52 336.794C1195.13 336.68 1215.74 336.894 1235.25 336.385L1235.06 543.961L1323.83 543.819L1323.75 336.755C1351.36 336.897 1378.97 336.84 1406.57 336.583L1406.89 846.264L1323.42 846.56L1323.67 621.79C1294.37 621.868 1264.46 621.593 1235.23 621.989C1234.97 665.196 1234.94 708.404 1235.14 751.612C1235.19 779.569 1234.77 809.93 1235.71 837.721C1235.87 840.899 1235.94 841.895 1235.4 845.014C1231.54 847.65 1162.77 846.824 1152.36 846.85C1152.04 808.129 1151.99 769.405 1152.2 730.683C1151.5 716.874 1152.02 698.498 1152.02 684.424L1152.02 595.944C1152.02 530.514 1150.79 461.47 1152.08 396.381C1150.9 384.882 1151.98 349.681 1152.06 336.57C1159.78 336.771 1167.78 336.728 1175.52 336.794Z"/><path fill="#2C3145" d="M1153.42 596.482C1154.46 603.667 1153.92 614.134 1154.68 622.518C1156.45 617.676 1154.99 602.179 1157.14 594.393C1158.63 608.648 1155.99 649.248 1155.87 666.801L1155.47 844.781C1180.15 843.898 1203.84 843.94 1228.4 843.423L1230.11 840.027L1232.11 843.43L1233.47 843.351C1233.82 840.829 1233.83 840.014 1233.69 837.468L1234.81 836.864L1235.71 837.721C1235.87 840.899 1235.94 841.895 1235.4 845.014C1231.54 847.65 1162.77 846.824 1152.36 846.85C1152.04 808.129 1151.99 769.405 1152.2 730.683L1152.76 730.18C1154.47 726.189 1153.44 609.651 1153.42 596.482Z"/><path fill="#21263B" d="M1152.06 336.57C1159.78 336.771 1167.78 336.728 1175.52 336.794C1170.42 339.579 1157.04 340.046 1157.01 340.079C1167.96 341.29 1176.8 341.086 1187.79 341.024L1187.98 341.65C1179.15 343.769 1164.71 339.837 1157.58 344.215C1157.47 344.562 1157.51 385.578 1157.5 389.787C1157.46 406.298 1155.77 423.444 1155.23 439.873C1151.93 429.834 1154.96 404.411 1152.08 396.381C1150.9 384.882 1151.98 349.681 1152.06 336.57Z"/><path fill="#21263B" d="M1153.42 596.482C1153.35 577.419 1152.61 552.788 1154.31 534.102L1155.44 533.83C1158.36 543.439 1158.19 583.441 1157.14 594.393C1154.99 602.179 1156.45 617.676 1154.68 622.518C1153.92 614.134 1154.46 603.667 1153.42 596.482Z"/><path fill="#31394D" d="M1972.3 336.659L2076.58 336.74C2084.94 384.299 2094.45 440.162 2104.52 487.049L2148.43 726.496C2155.26 763.422 2162.72 810.783 2171.31 846.525L2087.05 846.701L2068.99 738.324L2007.72 738.568C2001.32 738.611 1984.46 738.319 1978.92 739.055C1978.56 745.85 1970.66 796.691 1968.89 803.533C1969.24 806.846 1963.59 841.156 1962.79 846.24C1935.77 846.175 1908.75 846.258 1881.72 846.488C1883.47 834.595 1886.58 810.157 1889.54 799.245C1890.41 787.405 1895.16 763.789 1897.34 751.272C1902.45 721.305 1907.76 691.372 1913.28 661.476C1923.18 607.202 1932.34 544 1944.03 490.957C1944.28 485.942 1951.12 448.641 1952.64 444.24C1954.63 428.165 1958.86 407.267 1961.87 391.107C1964.95 374.575 1968.33 352.732 1972.3 336.659Z"/><path fill="#21263B" d="M1972.3 336.659L2076.58 336.74C2084.94 384.299 2094.45 440.162 2104.52 487.049C2104.18 488.52 2103.79 489.904 2103.39 491.356C2103.06 487.481 2101.42 484.236 2100.34 479.622C2097.38 467.007 2098.08 452.132 2091.18 440.929C2090.22 439.37 2090.16 438.936 2089.5 437.306C2089.66 436.924 2089.82 436.541 2089.98 436.157C2090.37 435.172 2091.69 432.567 2091.5 431.796C2089.16 422.493 2078.74 352.587 2075.79 349.976L2074.06 352.353L2073.4 352.042L2072.12 343.865C2068.17 341.163 1989.8 342.575 1978.89 343.012C1972.61 348.284 1960.16 429.232 1953.5 445.085L1952.64 444.24C1954.63 428.165 1958.86 407.267 1961.87 391.107C1964.95 374.575 1968.33 352.732 1972.3 336.659Z"/><path fill="#21263B" d="M1944.03 490.957C1945.71 504.07 1928.57 616.385 1924.01 629.453L1923.11 629.867C1921.63 622.45 1937.76 563.052 1933.8 559.334C1933.26 560.071 1932.26 561.005 1932.46 561.785C1934.31 568.923 1929.98 575.026 1929.43 581.303C1928.03 597.066 1924.22 612.475 1921.15 627.986C1920.86 629.488 1922.1 632.479 1922.65 633.932C1919.61 650.605 1901.98 770.944 1897.24 777.41C1896.57 770.763 1901.75 759.878 1898.97 757.408C1897.39 763.968 1892.05 798.621 1890.41 800.414L1889.54 799.245C1890.41 787.405 1895.16 763.789 1897.34 751.272C1902.45 721.305 1907.76 691.372 1913.28 661.476C1923.18 607.202 1932.34 544 1944.03 490.957Z"/><path fill="#21263B" d="M1968.89 803.533C1965.55 796.625 1970.5 786.185 1970.98 778.864C1971.89 764.646 1967.66 754.766 1975.12 741.921L1975.07 742.454L1976.12 742.177L1978 738.89L1978.92 739.055C1978.56 745.85 1970.66 796.691 1968.89 803.533Z"/><path fill="white" d="M2022.8 447.399C2024.74 449.082 2024.71 448.909 2025.18 452.047C2028.66 475.452 2032.07 499.044 2035.55 522.427C2042.57 569.347 2049.93 616.214 2057.63 663.026L2024.99 662.874L1991.43 662.891L2022.8 447.399Z"/><path fill="#31394D" d="M2662.19 650.287C2648.62 639.756 2634.38 625.244 2621.32 613.706C2577.19 573.454 2539.18 541.777 2531.8 479.4C2522.01 404.147 2548.87 338.342 2631.55 329.039C2692.48 322.185 2751.06 341.226 2768.91 406.127C2775.24 429.169 2775.46 450.377 2775.45 474.099C2749.58 475.154 2721.88 476.77 2696.09 477.119C2696.04 457.725 2697.16 425.565 2682.35 413.695C2649.76 387.585 2610.47 409.038 2613.7 451.103C2614.08 485.493 2634.95 506.904 2659.44 529.457C2720.85 585.994 2776.45 619.527 2780.21 711.08C2783.66 795.305 2750.62 848.113 2661.31 852.907C2626.49 854.775 2589.61 846.963 2563.49 822.712C2525.59 787.727 2526.84 737.567 2527.75 690.119C2554.64 689.743 2581.41 687.639 2608.23 686.718C2608.16 709.904 2605.22 750.233 2621.7 767.999C2635.83 783.228 2669.57 783.999 2683.91 768.437C2689.5 762.487 2690.8 759.081 2693.47 751.328C2695 743.036 2695.85 734.632 2696.01 726.202C2696.65 688.289 2686.73 675.661 2662.19 650.287Z"/><path fill="#21263B" d="M2662.19 650.287L2664.4 649.721C2678.22 663.463 2682.23 667.745 2691.82 684.483L2692.4 683.567L2691.53 684.174C2691.52 684.178 2691.52 684.182 2691.51 684.186C2692.91 682.46 2692.11 679.897 2691.91 677.033C2693.25 677.858 2696.01 684.796 2696.54 686.53C2701.16 701.595 2699.4 739.344 2694.87 753.335C2694.46 752.768 2693.77 751.916 2693.47 751.328C2695 743.036 2695.85 734.632 2696.01 726.202C2696.65 688.289 2686.73 675.661 2662.19 650.287Z"/><path fill="#31394D" d="M1079.12 659.907L1079.28 660.881C1080.7 670.166 1079.91 686.845 1080.13 696.795C1080.99 735.987 1078.7 776.101 1054.48 808.867C1035.39 834.671 1007.45 848.814 975.841 852.597C940.057 856.879 902.287 851.817 872.875 829.686C824.998 793.66 827.692 742.204 827.746 688.459L827.892 594.833L827.825 500.272C827.742 475.586 827.159 454.318 830.151 429.109C841.589 332.735 964.463 300.16 1036.11 352.787C1083.52 387.612 1080.13 453.604 1079.85 507.174C1052.35 507.234 1024.4 507.032 996.939 507.385C996.98 495.039 996.146 473.574 996.969 462.516C1000.35 417.091 966.845 383.976 925.537 414.196C910.052 425.525 912.014 464.73 912.038 481.878L912.1 540.54C912.158 600.451 912.058 660.164 911.923 720.297C911.854 751.061 917.667 778.864 955.534 778.61C966.952 778.534 978.192 774.832 985.626 765.817C985.818 765.586 988.378 762.752 988.457 762.692C1000.75 734.516 996.863 691.221 996.917 658.844C1023.64 658.986 1052.58 658.673 1079.12 659.907Z"/><path fill="#21263B" d="M996.917 658.844C1023.64 658.986 1052.58 658.673 1079.12 659.907C1078.8 663.105 1078.51 677.752 1077.49 678.861C1074.59 673.934 1079.86 666.659 1072.57 664.911C1066.16 663.378 1049.69 667.098 1044.8 664.016C1041.39 664.637 1040.68 665.42 1038.19 664.014C1041.58 662.678 1055.68 662.534 1060.17 662.367C1057.48 660.475 1006.99 661.411 998.986 660.928C999.433 686.936 1003.85 742.428 990.485 761.928L988.457 762.692C1000.75 734.516 996.863 691.221 996.917 658.844Z"/><path fill="#31394D" d="M1628.57 336.907L1682.71 336.83C1689.33 336.814 1702.85 336.405 1709.03 337.104L1709.86 338.784L1710.05 625.496C1710.04 673.598 1710.6 723.118 1709.94 771.101C1755.29 770.888 1800.64 770.928 1846 771.221L1846.19 846.297L1628.63 846.481C1628.62 813.932 1627.87 778.489 1628.65 746.198C1628.05 698.897 1628.56 650.301 1628.57 602.942L1628.57 336.907Z"/><path fill="#2C3145" d="M1628.57 336.907L1682.71 336.83C1689.33 336.814 1702.85 336.405 1709.03 337.104L1709.86 338.784C1709.07 340.662 1708.48 342.099 1707.86 344.038C1705.73 343.609 1702.48 340.49 1700.82 340.552C1686.07 341.1 1644.1 338.827 1632.89 343.244C1631.75 344.43 1631.46 490.848 1631.46 506.239L1631.68 740.099C1631.67 743.069 1631.8 745.404 1630.1 747.517L1628.65 746.198C1628.05 698.897 1628.56 650.301 1628.57 602.942L1628.57 336.907Z"/><path fill="#31394D" d="M338.885 336.63C366.526 336.885 394.168 336.891 421.808 336.647C421.79 348.839 422.028 362.193 421.707 374.29C422.408 388.637 421.627 409.967 421.579 424.873L421.541 522.216L422.249 846.769L338.376 846.831C338.723 789.942 338.778 733.051 338.538 676.162L338.724 488.975L338.419 389.766C338.367 375.61 337.538 349.673 338.885 336.63Z"/><path fill="#21263B" d="M338.885 336.63C366.526 336.885 394.168 336.891 421.808 336.647C421.79 348.839 422.028 362.193 421.707 374.29C418.824 377.998 421.842 405.141 419.688 409.08L418.835 407.973C417.355 400.718 420.056 390.579 418.321 382.562C417.923 380.723 416.27 370.626 417.053 369.32L418.436 371.116L419.216 369.002L416.655 365.5L418.665 362.191C418.795 356.978 417.298 359.342 415.683 356.847C414.708 355.34 417.963 348.644 417.188 345.706C404.517 339.094 366.181 344.371 350.374 341.288C339.614 339.19 341.215 356.791 340.367 364.307C339.026 354.617 339.844 346.398 338.885 336.63Z"/></svg>